<svg width="18" height="18" viewBox="0 0 18 18" fill="none" xmlns="http://www.w3.org/2000/svg">
<path d="M14.31 8.01C11.43 6.3 6.615 6.12 3.87 6.975C3.42 7.11 2.97 6.84 2.835 6.435C2.7 5.985 2.97 5.535 3.375 5.4C6.57 4.455 11.835 4.635 15.165 6.615C15.57 6.84 15.705 7.38 15.48 7.785C15.255 8.1 14.715 8.235 14.31 8.01ZM14.22 10.53C13.995 10.845 13.59 10.98 13.275 10.755C10.845 9.27 7.155 8.82 4.32 9.72C3.96 9.81 3.555 9.63 3.465 9.27C3.375 8.91 3.555 8.505 3.915 8.415C7.2 7.425 11.25 7.92 14.04 9.63C14.31 9.765 14.445 10.215 14.22 10.53ZM13.14 13.005C12.96 13.275 12.645 13.365 12.375 13.185C10.26 11.88 7.605 11.61 4.455 12.33C4.14 12.42 3.87 12.195 3.78 11.925C3.69 11.61 3.915 11.34 4.185 11.25C7.605 10.485 10.575 10.8 12.915 12.24C13.23 12.375 13.275 12.735 13.14 13.005ZM9 0C7.8181 0 6.64778 0.232792 5.55585 0.685084C4.46392 1.13738 3.47177 1.80031 2.63604 2.63604C0.948211 4.32387 0 6.61305 0 9C0 11.3869 0.948211 13.6761 2.63604 15.364C3.47177 16.1997 4.46392 16.8626 5.55585 17.3149C6.64778 17.7672 7.8181 18 9 18C11.3869 18 13.6761 17.0518 15.364 15.364C17.0518 13.6761 18 11.3869 18 9C18 7.8181 17.7672 6.64778 17.3149 5.55585C16.8626 4.46392 16.1997 3.47177 15.364 2.63604C14.5282 1.80031 13.5361 1.13738 12.4442 0.685084C11.3522 0.232792 10.1819 0 9 0Z" fill="black"/>
</svg>
